HIERARCHY
ROOT Hips
{
	OFFSET 0.00000 0.00000 0.00000
	CHANNELS 6 Xposition Yposition Zposition Zrotation Yrotation Xrotation 
	JOINT LHipJoint
	{
		OFFSET 0 0 0
		CHANNELS 3 Zrotation Yrotation Xrotation
		JOINT LeftHip
		{
			OFFSET 1.62964 -1.40469 0.78906
			CHANNELS 3 Zrotation Yrotation Xrotation
			JOINT LeftKnee
			{
				OFFSET 2.29640 -6.30932 0.00000
				CHANNELS 3 Zrotation Yrotation Xrotation
				JOINT LeftAnkle
				{
					OFFSET 2.29451 -6.30412 0.00000
					CHANNELS 3 Zrotation Yrotation Xrotation
					JOINT LeftToe
					{
						OFFSET 0.03611 -0.09921 1.56387
						CHANNELS 3 Zrotation Yrotation Xrotation
						End Site
						{
							OFFSET 0.00000 -0.00000 0.80291
						}
					}
				}
			}
		}
	}
	JOINT RHipJoint
	{
		OFFSET 0 0 0
		CHANNELS 3 Zrotation Yrotation Xrotation
		JOINT RightHip
		{
			OFFSET -1.73712 -1.40469 0.78906
			CHANNELS 3 Zrotation Yrotation Xrotation
			JOINT RightKnee
			{
				OFFSET -2.28137 -6.26801 0.00000
				CHANNELS 3 Zrotation Yrotation Xrotation
				JOINT RightAnkle
				{
					OFFSET -2.28681 -6.28298 0.00000
					CHANNELS 3 Zrotation Yrotation Xrotation
					JOINT RightToe
					{
						OFFSET -0.15927 -0.43759 1.61103
						CHANNELS 3 Zrotation Yrotation Xrotation
						End Site
						{
							OFFSET -0.00000 -0.00000 0.84630
						}
					}
				}
			}
		}
	}
	JOINT lowerback
	{
		OFFSET 0 0 0
		CHANNELS 3 Zrotation Yrotation Xrotation
		JOINT Chest
		{
			OFFSET -0.04227 2.04338 -0.00225
			CHANNELS 3 Zrotation Yrotation Xrotation
			JOINT Chest2
			{
				OFFSET -0.02148 2.04482 -0.04273
				CHANNELS 3 Zrotation Yrotation Xrotation
				JOINT lowerneck
				{
					OFFSET 0 0 0
					CHANNELS 3 Zrotation Yrotation Xrotation
					JOINT Neck
					{
						OFFSET 0.09180 1.44629 0.19359
						CHANNELS 3 Zrotation Yrotation Xrotation
						JOINT Head
						{
							OFFSET 0.00887 1.40645 0.14750
							CHANNELS 3 Zrotation Yrotation Xrotation
							End Site
							{
								OFFSET -0.00669 1.50671 0.03707
							}
						}
					}
				}
				JOINT LeftCollar
				{
					OFFSET 0 0 0
					CHANNELS 3 Zrotation Yrotation Xrotation
					JOINT LeftShoulder
					{
						OFFSET 2.17674 1.86763 -0.06520
CHANNELS 3 Zrotation Xrotation Yrotation
						JOINT LeftElbow
						{
OFFSET 0 -4.657760 0.000000
CHANNELS 3 Zrotation Xrotation Yrotation
							JOINT LeftWrist
							{
OFFSET 0 -3.555390 0.000000
CHANNELS 3 Zrotation Xrotation Yrotation
								JOINT lhand
								{
									OFFSET 0 0 0
CHANNELS 3 Zrotation Xrotation Yrotation
									JOINT LFingers
									{
OFFSET 0 -0.707260 0.000000
CHANNELS 3 Zrotation Xrotation Yrotation
										End Site
										{
OFFSET 0 -0.570220 0.000000
										}
									}
								}
								JOINT LThumb
								{
OFFSET 0 0.000000 0.000000
CHANNELS 3 Zrotation Xrotation Yrotation
									End Site
									{
OFFSET 0 -0.578920 0.578920
									}
								}
							}
						}
					}
				}
				JOINT RightCollar
				{
					OFFSET 0 0 0
					CHANNELS 3 Zrotation Yrotation Xrotation
					JOINT RightShoulder
					{
						OFFSET -2.80694 1.55459 -0.32496
CHANNELS 3 Zrotation Xrotation Yrotation
						JOINT RightElbow
						{
OFFSET 0 -4.719250 -0.000000
CHANNELS 3 Zrotation Xrotation Yrotation
							JOINT RightWrist
							{
OFFSET 0 -3.569900 0.000000
CHANNELS 3 Zrotation Xrotation Yrotation
								JOINT rhand
								{
									OFFSET 0 0 0
CHANNELS 3 Zrotation Xrotation Yrotation
									JOINT RFingers
									{
OFFSET 0 -0.507760 0.000000
CHANNELS 3 Zrotation Xrotation Yrotation
										End Site
										{
OFFSET 0 -0.409370 0.000000
										}
									}
								}
								JOINT RThumb
								{
OFFSET 0 0.000000 0.000000
CHANNELS 3 Zrotation Xrotation Yrotation
									End Site
									{
OFFSET 0 -0.415620 0.415620
									}
								}
							}
						}
					}
				}
			}
		}
	}
}
MOTION
Frames: 10
Frame Time: 0.008333333333333333
16.893900 18.045000 20.697900 173.549000 -3.100400 -153.372000 0.000000 0.000000 0.000000 -25.594400 -17.157700 -19.104800 0.250200 3.218400 8.887500 0.151300 -6.275600 -7.650200 0.409500 -4.108000 -11.380700 0.000000 0.000000 0.000000 14.706800 11.085700 -20.207200 -0.087300 -1.905300 5.244000 -0.603600 4.762200 -13.833500 -2.468500 9.780300 -28.268300 -11.848500 -2.896400 -30.100700 -1.290500 -0.312600 -1.147900 4.757000 -1.193800 14.449000 -0.527900 -1.203000 -5.983100 3.180800 -1.734000 2.739600 1.034100 -0.804000 1.919400 -0.000000 0.000000 0.000000 5.660700 1.885800 -20.372600 12.458500 -20.488600 2.260200 20.850000 -0.360200 12.149800 0.000000 0.000000 0.000000 -7.125000 0.000000 0.000000 -4.426400 17.030900 -2.944700 -0.000000 0.000000 0.000000 1.159400 5.724700 4.513900 -16.738100 -26.511200 -3.969700 -10.338900 6.699700 52.611400 0.000000 0.000000 0.000000 7.125000 0.000000 -0.000000 66.133600 74.977400 -51.265700
16.894860 18.045611 20.697463 173.522806 -3.065650 -153.342314 0.000000 0.000000 0.000000 -25.605227 -17.263086 -19.086028 0.249327 3.212987 8.872220 0.156713 -6.235786 -7.733059 0.299923 -3.513928 -9.713823 0.000000 0.000000 0.000000 14.639308 11.193531 -20.405311 -0.099611 -2.034522 5.601107 -0.608751 4.767264 -13.892872 -2.380664 9.617375 -27.746697 -11.824838 -2.892122 -30.118162 -1.333807 -0.312687 -1.157941 4.695881 -1.192665 14.444285 -0.415180 -1.221859 -6.028939 3.110514 -1.765782 2.760730 0.991055 -0.819716 1.932584 0.000000 0.000000 0.000000 5.753251 1.900905 -20.559535 12.534287 -20.601058 2.286830 21.012488 -0.524347 11.995345 0.000000 0.000000 0.000000 -7.125000 0.000000 0.000000 -4.308267 17.179942 -2.851625 0.000000 0.000000 0.000000 1.188650 5.658605 4.514249 -16.703699 -26.465536 -3.954420 -9.870295 6.333076 52.225393 0.000000 0.000000 0.000000 7.125000 0.000000 0.000000 65.014083 74.671545 -49.922664
16.896343 18.045849 20.697400 173.519746 -3.032840 -153.274569 0.000000 0.000000 0.000000 -25.587472 -17.332130 -19.129418 0.248752 3.209290 8.862015 0.162201 -6.191270 -7.816068 0.296462 -3.500807 -9.676295 0.000000 0.000000 0.000000 14.631515 11.175694 -20.548872 -0.102743 -2.066583 5.689641 -0.599799 4.809939 -13.789116 -2.356035 9.571387 -27.599559 -11.687673 -2.820980 -30.126297 -1.458380 -0.273448 -1.234397 4.500812 -1.163396 14.351514 -0.262163 -1.239599 -6.020974 3.120299 -1.806145 2.856857 0.966517 -0.837596 1.961514 0.000000 0.000000 0.000000 5.993334 2.045185 -20.819677 12.625148 -20.735530 2.318908 21.205273 -0.919009 12.231548 0.000000 0.000000 0.000000 -7.125000 0.000000 0.000000 -4.182074 16.911535 -2.791908 0.000000 0.000000 0.000000 1.376327 5.755414 4.476540 -16.736609 -26.509271 -3.969065 -9.121551 5.820338 51.891250 0.000000 0.000000 0.000000 7.125000 0.000000 0.000000 64.285822 74.272560 -48.834843
16.898968 18.045838 20.698143 173.520000 -3.063968 -153.237516 0.000000 0.000000 0.000000 -25.558107 -17.363159 -19.175821 0.250086 3.217838 8.885871 0.161013 -6.173888 -7.788917 0.318042 -3.624117 -10.021518 0.000000 0.000000 0.000000 14.655426 11.153337 -20.589263 -0.102209 -2.061252 5.674972 -0.592412 4.799487 -13.703271 -2.346797 9.553828 -27.543712 -11.748112 -2.833728 -30.175396 -1.406129 -0.265550 -1.223234 4.592218 -1.166011 14.385048 -0.377231 -1.241479 -5.961434 3.172995 -1.798666 2.747099 1.003346 -0.835530 1.917125 0.000000 0.000000 0.000000 5.934511 2.011434 -20.909305 12.677260 -20.812552 2.337357 21.320958 -1.092358 12.554425 0.000000 0.000000 0.000000 -7.125000 0.000000 0.000000 -4.113350 16.557783 -2.777686 0.000000 0.000000 0.000000 1.316685 5.728734 4.378289 -16.786910 -26.576011 -3.991523 -8.529196 5.474698 51.863901 0.000000 0.000000 0.000000 7.125000 0.000000 0.000000 64.520738 74.042125 -48.790443
16.900595 18.045997 20.697566 173.540684 -3.121601 -153.270354 0.000000 0.000000 0.000000 -25.511990 -17.413945 -19.126047 0.250360 3.219514 8.890528 0.158561 -6.104913 -7.722236 0.316437 -3.615258 -9.996712 0.000000 0.000000 0.000000 14.727666 11.005896 -20.578527 -0.101551 -2.054757 5.657069 -0.594135 4.920867 -13.722806 -2.354238 9.567843 -27.588422 -11.789659 -2.843889 -30.163622 -1.334378 -0.263039 -1.191737 4.695328 -1.167987 14.417414 -0.554313 -1.261563 -5.899779 3.262022 -1.812111 2.635231 1.061762 -0.843657 1.873612 0.000000 0.000000 0.000000 5.836078 1.934849 -20.945840 12.708409 -20.858544 2.348464 21.370884 -1.175475 12.740267 0.000000 0.000000 0.000000 -7.125000 0.000000 0.000000 -4.085725 16.355543 -2.777024 0.000000 0.000000 0.000000 1.233525 5.680496 4.242225 -16.828024 -26.630484 -4.009926 -8.413334 5.476103 51.914016 0.000000 0.000000 0.000000 7.125000 0.000000 0.000000 64.752470 74.017151 -48.969203
16.900534 18.046785 20.695513 173.589421 -3.165574 -153.338861 0.000000 0.000000 0.000000 -25.448628 -17.476225 -19.010659 0.248567 3.208071 8.858611 0.159043 -5.987435 -7.692800 0.309979 -3.579008 -9.895168 0.000000 0.000000 0.000000 14.835734 10.764562 -20.574351 -0.102085 -2.060077 5.671777 -0.603545 5.171210 -13.832512 -2.364761 9.587759 -27.651794 -11.714946 -2.810553 -30.103356 -1.314430 -0.249615 -1.186814 4.685795 -1.154313 14.396648 -0.605800 -1.315633 -5.854823 3.261376 -1.879312 2.646865 1.068303 -0.877540 1.871402 0.000000 0.000000 0.000000 5.819164 1.919599 -21.021066 12.745174 -20.912726 2.361576 21.317935 -1.261728 12.791555 0.000000 0.000000 0.000000 -7.125000 0.000000 0.000000 -4.124354 16.306177 -2.807830 0.000000 0.000000 0.000000 1.220347 5.702408 4.172516 -16.900518 -26.726311 -4.042540 -8.469852 5.637498 52.537580 0.000000 0.000000 0.000000 7.125000 0.000000 0.000000 66.849680 74.233312 -51.117914
16.900545 18.047752 20.694445 173.640104 -3.194525 -153.369586 0.000000 0.000000 0.000000 -25.388341 -17.493081 -18.963018 0.247316 3.200188 8.836610 0.159815 -5.909772 -7.681467 0.318886 -3.629787 -10.037337 0.000000 0.000000 0.000000 14.931871 10.572548 -20.578513 -0.100832 -2.046967 5.635568 -0.601844 5.355790 -13.814897 -2.354117 9.567583 -27.587489 -11.604339 -2.769194 -30.059907 -1.319272 -0.240739 -1.209149 4.627255 -1.140060 14.352037 -0.493763 -1.377520 -5.827243 3.102059 -1.963645 2.756152 0.995619 -0.920217 1.899582 0.000000 0.000000 0.000000 5.841567 1.968428 -21.120905 12.802974 -20.997778 2.382197 21.110245 -1.307944 12.796970 0.000000 0.000000 0.000000 -7.125000 0.000000 0.000000 -4.268213 16.320493 -2.904899 0.000000 0.000000 0.000000 1.235878 5.777391 4.262497 -17.004261 -26.863355 -4.089279 -8.509396 5.690953 53.452397 0.000000 0.000000 0.000000 7.125000 0.000000 0.000000 69.954277 74.538459 -54.275663
16.903059 18.047421 20.696981 173.648881 -3.232763 -153.323848 0.000000 0.000000 0.000000 -25.361005 -17.444136 -19.072619 0.249936 3.216692 8.882618 0.154181 -5.935121 -7.585766 0.306982 -3.560391 -9.843223 0.000000 0.000000 0.000000 14.974098 10.485325 -20.546573 -0.092694 -1.963502 5.404900 -0.563030 5.327509 -13.364096 -2.320318 9.503560 -27.383597 -11.542992 -2.755866 -30.024929 -1.352293 -0.255067 -1.252820 4.553283 -1.139546 14.287693 -0.302291 -1.397865 -5.830988 2.949881 -2.000965 2.891312 0.913010 -0.938405 1.939835 0.000000 0.000000 0.000000 5.911019 2.045351 -21.194676 12.877300 -21.107154 2.408897 20.823120 -1.278671 12.763455 0.000000 0.000000 0.000000 -7.125000 0.000000 0.000000 -4.465571 16.383623 -3.033960 0.000000 0.000000 0.000000 1.300716 5.825467 4.458488 -17.041819 -26.912851 -4.106247 -8.845181 5.589710 53.034877 0.000000 0.000000 0.000000 7.125000 0.000000 0.000000 68.339156 74.546188 -52.797516
16.906638 18.046024 20.700735 173.640150 -3.254329 -153.275826 0.000000 0.000000 0.000000 -25.340749 -17.420998 -19.185950 0.252555 3.233806 8.930378 0.144664 -5.946996 -7.414546 0.259222 -3.275404 -9.046412 0.000000 0.000000 0.000000 14.998284 10.423071 -20.528413 -0.085622 -1.887803 5.195700 -0.520335 5.246396 -12.849653 -2.302507 9.469683 -27.275854 -11.638162 -2.793846 -30.045447 -1.292135 -0.268863 -1.224094 4.663995 -1.153952 14.332135 -0.356861 -1.369488 -5.856658 2.992664 -1.960103 2.839885 0.937282 -0.918149 1.928397 0.000000 0.000000 0.000000 5.829208 1.935687 -21.192930 12.903057 -21.145048 2.418239 20.833423 -1.218338 12.736563 0.000000 0.000000 0.000000 -7.125000 0.000000 0.000000 -4.457538 16.411127 -3.025840 0.000000 0.000000 0.000000 1.214975 5.708119 4.457615 -17.077093 -26.959301 -4.122225 -8.208064 5.196369 53.544431 0.000000 0.000000 0.000000 7.125000 0.000000 0.000000 70.405836 74.453200 -54.594575
16.909618 18.046429 20.702516 173.678614 -3.306186 -153.277574 0.000000 0.000000 0.000000 -25.249270 -17.459729 -19.201630 0.251742 3.228351 8.915154 0.134546 -5.905153 -7.208231 0.177996 -2.707760 -7.466759 0.000000 0.000000 0.000000 15.064516 10.480265 -20.502872 -0.085414 -1.884698 5.187209 -0.527151 5.125124 -12.928841 -2.294820 9.455027 -27.229207 -11.542578 -2.783173 -29.946089 -1.314269 -0.306084 -1.270710 4.576744 -1.159005 14.240226 -0.428593 -1.302669 -5.823548 3.151976 -1.873934 2.801072 1.003430 -0.873780 1.911725 0.000000 0.000000 0.000000 5.921590 1.990177 -21.284974 12.941771 -21.201905 2.432215 21.091630 -1.370384 12.819335 0.000000 0.000000 0.000000 -7.125000 0.000000 0.000000 -4.281919 16.298589 -2.916293 0.000000 0.000000 0.000000 1.279488 5.733130 4.482485 -17.109793 -27.002318 -4.137088 -8.320580 5.255759 53.058250 0.000000 0.000000 0.000000 7.125000 0.000000 0.000000 68.667113 74.357381 -52.886738
